# xmcd
#
# Track frame offsets:
#	150
#	16030
#	36480
#	58540
#	80417
#	97925
#	118462
#	135837
#	155152
#	174927
#	193057
#
# Disc length: 2806 seconds
#
# Revision: 0
# Processed by: cddbd v1.5PL3 Copyright (c) Steve Scherf et al.
# Submitted via: dBpowerAMP V4.0
#
DISCID=890af40b
DTITLE=Patrick Davis - Chances Are
DYEAR=2004
DGENRE=Country
TTITLE0=This Life
TTITLE1=Only Love
TTITLE2=Just Like The Nite
TTITLE3=Can't Stop Rolling
TTITLE4=Rock Myself
TTITLE5=Faithless Heart
TTITLE6=Maybe Tonite
TTITLE7=Nowhere Town
TTITLE8=Rock'n'Roll Woman
TTITLE9=Scared to Dream
TTITLE10=Ooh Las Vegas
EXTD=http://chriskline.com
EXTT0=
EXTT1=
EXTT2=
EXTT3=
EXTT4=
EXTT5=
EXTT6=
EXTT7=
EXTT8=
EXTT9=
EXTT10=
PLAYORDER=
